<svg xmlns="http://www.w3.org/2000/svg" fill="none" viewBox="0 0 196 26">
  <path fill="currentColor" fill-rule="evenodd" d="M5.798 8.984a3.209 3.209 0 0 1 3.207-3.206 3.2 3.2 0 0 1 3.206 3.206 3.2 3.2 0 0 1-3.206 3.207 3.2 3.2 0 0 1-3.207-3.207Zm3.929 0c0 .405.318.723.722.723a.715.715 0 0 0 .722-.723 2.164 2.164 0 0 0-2.166-2.166.715.715 0 0 0-.723.722c0 .404.318.722.723.722.404 0 .722.318.722.722Z" clipRule="evenodd"/>
  <path fill="currentColor" fill-rule="evenodd" d="M.338 8.667C.338 3.886 4.223 0 9.005 0c4.78 0 8.666 3.886 8.666 8.667C17.671 17.333 9.005 26 9.005 26S.338 17.333.338 8.667Zm9.389 7.222v-2.34c2.224-.361 3.929-2.268 3.929-4.579a4.648 4.648 0 0 0-4.651-4.651A4.657 4.657 0 0 0 4.353 8.97a4.634 4.634 0 0 0 3.93 4.579v2.34c0 .404.317.722.722.722a.715.715 0 0 0 .722-.722Z" clipRule="evenodd"/>
  <path fill="currentColor" d="M41.079 5.077H29.67v16.1h3.312V14.69h6.877v-2.715h-6.877V7.792h8.096V5.077Zm3.306 3.128c1.058 0 1.863-.805 1.863-1.863 0-1.058-.805-1.863-1.863-1.863-1.058 0-1.863.805-1.863 1.863 0 1.058.805 1.863 1.863 1.863Zm1.54 12.972v-11.5h-3.127v11.5h3.128ZM55.13 9.332c-1.748 0-3.105.896-3.772 2.391V9.678h-3.104v11.5h3.105v-5.659c0-2.139 1.08-3.588 2.575-3.588 1.794 0 1.794 1.633 1.794 2.715v6.532h3.128V14.62c0-1.587 0-5.29-3.726-5.29Zm14.302 1.908c-.874-1.219-2.185-1.908-3.818-1.908-3.059 0-5.221 2.438-5.221 6.095 0 3.657 2.185 6.095 5.244 6.095 1.633 0 2.944-.69 3.795-1.886v1.54h3.128v-16.1h-3.128v6.165Zm-2.806 7.59c-1.794 0-2.99-1.356-2.99-3.403 0-2.047 1.196-3.404 2.99-3.404 1.771 0 2.967 1.357 2.967 3.404 0 2.047-1.196 3.404-2.967 3.404Zm23.458-1.426L86.448 5.077h-5.635v16.1h3.313V7.883l4.209 13.294h3.404L95.925 7.86v13.317h3.334v-16.1h-5.566l-3.61 12.327Zm20.012.046c-.368.898-1.219 1.38-2.369 1.38-1.656 0-2.599-.988-2.829-2.644h8.073c1.219-3.726-1.104-6.854-5.29-6.854-3.657 0-6.072 2.438-6.072 6.095 0 3.657 2.369 6.095 6.072 6.095 2.99 0 5.129-1.587 5.819-4.071h-3.404Zm-2.438-5.52c1.633 0 2.438.92 2.3 2.3h-5.014c.299-1.495 1.242-2.3 2.714-2.3Zm21.152 9.591c4.163 0 7.153-2.46 7.705-6.325h-3.519c-.345 2.002-1.886 3.52-4.186 3.52-2.875 0-4.853-2.37-4.853-5.613 0-3.104 1.863-5.565 4.807-5.565 2.461 0 4.071 1.702 3.611 4.346h3.427c.69-4.07-2.507-7.152-7.084-7.152-4.83 0-8.188 3.496-8.188 8.372 0 4.692 3.151 8.418 8.28 8.418Zm14.987 0c3.634 0 6.049-2.438 6.049-6.095 0-3.656-2.415-6.094-6.049-6.094-3.634 0-6.049 2.438-6.049 6.095 0 3.657 2.415 6.095 6.049 6.095Zm0-2.69c-1.679 0-2.806-1.357-2.806-3.404 0-2.07 1.127-3.404 2.806-3.404s2.806 1.334 2.806 3.404c0 2.047-1.127 3.404-2.806 3.404Zm16.179-10.258c.529-2.277-.506-3.841-3.174-3.841-2.53 0-3.979 1.426-3.979 3.84v1.105h-2.3v2.668h2.3v8.832h3.128v-8.832h4.002V9.677h-4.002V8.573c0-.828.253-1.311.805-1.311s.759.483.506 1.31h2.714Zm10.108 0c.529-2.277-.506-3.841-3.174-3.841-2.53 0-3.979 1.426-3.979 3.84v1.105h-2.3v2.668h2.3v8.832h3.128v-8.832h4.002V9.677h-4.002V8.573c0-.828.253-1.311.805-1.311s.759.483.506 1.31h2.714Zm9.079 8.877c-.368.898-1.219 1.38-2.369 1.38-1.656 0-2.599-.988-2.829-2.644h8.073c1.219-3.726-1.104-6.854-5.29-6.854-3.657 0-6.072 2.438-6.072 6.095 0 3.657 2.369 6.095 6.072 6.095 2.99 0 5.129-1.587 5.819-4.071h-3.404Zm-2.438-5.52c1.633 0 2.438.92 2.3 2.3h-5.014c.299-1.495 1.242-2.3 2.714-2.3Zm15.533 5.52c-.368.898-1.219 1.38-2.369 1.38-1.656 0-2.599-.988-2.829-2.644h8.073c1.219-3.726-1.104-6.854-5.29-6.854-3.657 0-6.072 2.438-6.072 6.095 0 3.657 2.369 6.095 6.072 6.095 2.99 0 5.129-1.587 5.819-4.071h-3.404Zm-2.438-5.52c1.633 0 2.438.92 2.3 2.3h-5.014c.299-1.495 1.242-2.3 2.714-2.3Z"/>
</svg>